<svg width="240" height="150" viewBox="0 0 240 150" fill="none" xmlns="http://www.w3.org/2000/svg">
<g clip-path="url(#clip0)">
<g filter="url(#filter0_d)">
<rect width="240" height="150" rx="9.6" fill="#C964F2"/>
</g>
<path fill-rule="evenodd" clip-rule="evenodd" d="M132.814 38C132.835 37.9094 132.87 37.7458 132.87 37.6484V30.1683C132.87 29.4788 132.313 28.9217 131.624 28.9217C130.934 28.9217 130.376 29.4788 130.376 30.1683V35.775C127.628 33.7903 124.265 32.6618 120.627 32.6618H120.518C117.777 32.6618 115.2 33.3163 112.922 34.5056V28.9217C112.922 28.2323 112.364 27.6746 111.675 27.6746C110.987 27.6746 110.429 28.2323 110.429 28.9217V36.1106C106.449 39.1909 103.884 44.1631 103.92 49.5726C103.978 58.7475 111.461 66.3243 120.623 66.3243H120.732C129.944 66.3243 137.391 58.5695 137.331 49.3574C137.304 44.9931 135.583 40.9616 132.814 38ZM120.715 63.8306H120.623C112.829 63.8306 106.463 57.3899 106.413 49.5841C106.361 41.7477 112.698 35.1555 120.534 35.1555H120.626C128.421 35.1555 134.786 41.5963 134.836 49.4022C134.887 57.2378 128.552 63.8306 120.715 63.8306Z" fill="white"/>
<path fill-rule="evenodd" clip-rule="evenodd" d="M111.675 20.1942C110.987 20.1942 110.429 20.7514 110.429 21.4408V23.9345C110.429 24.6239 110.987 25.1808 111.675 25.1808C112.364 25.1808 112.922 24.6239 112.922 23.9345V21.4408C112.922 20.7514 112.364 20.1942 111.675 20.1942Z" fill="white"/>
<path fill-rule="evenodd" clip-rule="evenodd" d="M131.624 21.4408C130.934 21.4408 130.376 21.9985 130.376 22.6879V25.1809C130.376 25.8703 130.934 26.428 131.624 26.428C132.313 26.428 132.87 25.8703 132.87 25.1809V22.6879C132.87 21.9985 132.313 21.4408 131.624 21.4408Z" fill="white"/>
<path fill-rule="evenodd" clip-rule="evenodd" d="M97.9612 48.8695C97.2726 48.8695 96.7139 49.4265 96.7139 50.1159V60.0905C96.7139 60.7799 97.2726 61.337 97.9612 61.337C98.6491 61.337 99.2076 60.7799 99.2076 60.0905V50.1159C99.2076 49.4265 98.6491 48.8695 97.9612 48.8695Z" fill="white"/>
<path fill-rule="evenodd" clip-rule="evenodd" d="M97.9612 41.3892C97.2726 41.3892 96.7139 41.9463 96.7139 42.6357V45.1292C96.7139 45.8188 97.2726 46.3758 97.9612 46.3758C98.6491 46.3758 99.2076 45.8188 99.2076 45.1292V42.6357C99.2076 41.9463 98.6491 41.3892 97.9612 41.3892Z" fill="white"/>
<path fill-rule="evenodd" clip-rule="evenodd" d="M145.338 37.6484C144.648 37.6484 144.091 38.2062 144.091 38.8956V48.8696C144.091 49.559 144.648 50.116 145.338 50.116C146.027 50.116 146.584 49.559 146.584 48.8696V38.8956C146.584 38.2062 146.027 37.6484 145.338 37.6484Z" fill="white"/>
<path fill-rule="evenodd" clip-rule="evenodd" d="M145.338 30.1682C144.648 30.1682 144.091 30.7252 144.091 31.4146V33.9083C144.091 34.5977 144.648 35.1554 145.338 35.1554C146.027 35.1554 146.584 34.5977 146.584 33.9083V31.4146C146.584 30.7252 146.027 30.1682 145.338 30.1682Z" fill="white"/>
<path fill-rule="evenodd" clip-rule="evenodd" d="M115.718 55.8793C116.246 56.3219 116.314 57.1089 115.872 57.6364C115.429 58.164 114.643 58.2322 114.115 57.7896C113.588 57.3474 113.519 56.5612 113.962 56.0336C114.404 55.5061 115.191 55.4371 115.718 55.8793Z" fill="white"/>
<path fill-rule="evenodd" clip-rule="evenodd" d="M126.937 42.5088C127.465 42.9514 127.534 43.7377 127.091 44.2652C126.649 44.7927 125.862 44.8617 125.334 44.4191C124.807 43.9769 124.739 43.1899 125.181 42.6624C125.624 42.1349 126.41 42.0666 126.937 42.5088Z" fill="white"/>
<path fill-rule="evenodd" clip-rule="evenodd" d="M112.718 51.3793C113.246 51.8219 113.314 52.6089 112.872 53.1364C112.429 53.664 111.643 53.7322 111.115 53.2896C110.588 52.8474 110.519 52.0612 110.962 51.5336C111.404 51.0061 112.191 50.9371 112.718 51.3793Z" fill="white"/>
<path fill-rule="evenodd" clip-rule="evenodd" d="M123.937 38.0088C124.465 38.4514 124.534 39.2377 124.091 39.7652C123.649 40.2927 122.862 40.3617 122.334 39.9191C121.807 39.4769 121.739 38.6899 122.181 38.1624C122.624 37.6349 123.41 37.5666 123.937 38.0088Z" fill="white"/>
<path fill-rule="evenodd" clip-rule="evenodd" d="M120.968 59.6293C121.496 60.0719 121.564 60.8589 121.122 61.3864C120.679 61.914 119.893 61.9822 119.365 61.5396C118.838 61.0974 118.769 60.3112 119.212 59.7836C119.654 59.2561 120.441 59.1871 120.968 59.6293Z" fill="white"/>
<path fill-rule="evenodd" clip-rule="evenodd" d="M132.187 46.2588C132.715 46.7014 132.784 47.4877 132.341 48.0152C131.899 48.5427 131.112 48.6117 130.584 48.1691C130.057 47.7269 129.989 46.9399 130.431 46.4124C130.874 45.8849 131.66 45.8166 132.187 46.2588Z" fill="white"/>
<path fill-rule="evenodd" clip-rule="evenodd" d="M156.559 68.8173H142.844C141.221 68.8173 139.85 69.8636 139.333 71.311H133.092C132.417 71.311 131.876 71.8482 131.853 72.5178L121.451 70.1581C120.701 69.9884 119.922 70.0471 119.204 70.3323L109.442 74.2048C108.182 74.7049 107.258 75.72 106.878 76.9467L87.8138 71.355C86.6518 71.0172 85.4327 71.2327 84.4702 71.9532C83.5365 72.6539 83 73.7164 83 74.8693V77.5736C83 78.8102 83.6286 79.9547 84.6794 80.6341L98.5297 89.5975C98.6514 89.6758 98.7876 89.7329 98.9298 89.7656L119.551 94.4745C119.83 94.5391 120.117 94.5703 120.403 94.5703C120.69 94.5703 120.975 94.5391 121.254 94.4745L132.107 91.9847C132.333 92.2928 132.681 92.506 133.093 92.506H139.335C139.85 93.9532 141.222 94.9995 142.846 94.9995H156.559C157.249 94.9995 157.807 94.4417 157.807 93.7523V70.0644C157.805 69.375 157.248 68.8173 156.559 68.8173ZM131.544 89.5564L120.696 92.0449C120.504 92.0897 120.301 92.0897 120.108 92.0449L99.7001 87.3839L86.0331 78.54C85.6953 78.3201 85.4937 77.9602 85.4937 77.5722V74.8685C85.4937 74.3745 85.7875 74.0817 85.9632 73.9508C86.2926 73.7049 86.7089 73.6274 87.1108 73.7484L106.906 79.5619C107.486 81.2803 109.148 82.5319 111.102 82.5319H120.403C121.09 82.5319 121.649 81.9742 121.649 81.2848C121.649 80.5954 121.09 80.0384 120.403 80.0384H111.102C110.044 80.0384 109.181 79.2197 109.181 78.2182C109.181 77.4777 109.646 76.8127 110.364 76.5273L120.126 72.6526C120.373 72.5544 120.642 72.533 120.901 72.5916L131.618 75.023L131.544 89.5564ZM134.116 90.0123H139.104V73.8047H134.116V90.0123ZM155.311 92.506H142.844C142.156 92.506 141.598 91.9475 141.598 91.2594V72.5581C141.598 71.8695 142.156 71.311 142.844 71.311H155.311V92.506Z" fill="white"/>
<path fill-rule="evenodd" clip-rule="evenodd" d="M150.548 87.5186H146.808C146.118 87.5186 145.561 88.0763 145.561 88.7657C145.561 89.4553 146.118 90.0123 146.808 90.0123H150.548C151.237 90.0123 151.794 89.4553 151.794 88.7657C151.794 88.0763 151.237 87.5186 150.548 87.5186Z" fill="white"/>
<path d="M70.957 129H62.0732V113.295H70.957V115.465H64.6406V119.74H70.5596V121.889H64.6406V126.819H70.957V129ZM81.5273 129L81.0225 127.346H80.9365C80.3636 128.069 79.7871 128.563 79.207 128.828C78.627 129.086 77.8822 129.215 76.9727 129.215C75.8053 129.215 74.8923 128.9 74.2334 128.27C73.5817 127.639 73.2559 126.748 73.2559 125.595C73.2559 124.37 73.7106 123.446 74.6201 122.823C75.5296 122.2 76.9154 121.86 78.7773 121.803L80.8291 121.738V121.104C80.8291 120.345 80.6501 119.78 80.292 119.407C79.9411 119.028 79.3932 118.838 78.6484 118.838C78.0397 118.838 77.4561 118.927 76.8975 119.106C76.3389 119.285 75.8018 119.497 75.2861 119.74L74.4697 117.936C75.1143 117.599 75.8197 117.345 76.5859 117.173C77.3522 116.994 78.0755 116.904 78.7559 116.904C80.2669 116.904 81.4056 117.234 82.1719 117.893C82.9453 118.551 83.332 119.586 83.332 120.997V129H81.5273ZM77.7676 127.281C78.6842 127.281 79.4183 127.027 79.9697 126.519C80.5283 126.003 80.8076 125.283 80.8076 124.359V123.328L79.2822 123.393C78.0934 123.436 77.2269 123.636 76.6826 123.994C76.1455 124.345 75.877 124.886 75.877 125.616C75.877 126.146 76.0345 126.558 76.3496 126.852C76.6647 127.138 77.1374 127.281 77.7676 127.281ZM92.8818 116.904C93.3903 116.904 93.8092 116.94 94.1387 117.012L93.8916 119.364C93.5335 119.278 93.1611 119.235 92.7744 119.235C91.7646 119.235 90.9447 119.565 90.3145 120.224C89.6914 120.882 89.3799 121.738 89.3799 122.791V129H86.8555V117.119H88.832L89.165 119.214H89.2939C89.6878 118.505 90.1999 117.943 90.8301 117.527C91.4674 117.112 92.1514 116.904 92.8818 116.904ZM106.804 129H104.269V121.695C104.269 120.779 104.082 120.095 103.71 119.644C103.345 119.192 102.761 118.967 101.959 118.967C100.892 118.967 100.111 119.282 99.6172 119.912C99.123 120.542 98.876 121.599 98.876 123.081V129H96.3516V117.119H98.3281L98.6826 118.677H98.8115C99.1696 118.111 99.6781 117.674 100.337 117.366C100.996 117.058 101.726 116.904 102.528 116.904C105.379 116.904 106.804 118.354 106.804 121.255V129ZM126.698 118.043C126.698 119.683 126.161 120.94 125.087 121.813C124.013 122.687 122.484 123.124 120.5 123.124H118.867V129H116.3V113.295H120.822C122.785 113.295 124.253 113.696 125.227 114.498C126.208 115.3 126.698 116.482 126.698 118.043ZM118.867 120.965H120.231C121.549 120.965 122.516 120.736 123.132 120.277C123.748 119.819 124.056 119.103 124.056 118.129C124.056 117.227 123.78 116.553 123.229 116.109C122.677 115.665 121.818 115.443 120.65 115.443H118.867V120.965ZM140.104 123.038C140.104 124.979 139.607 126.493 138.611 127.582C137.616 128.671 136.23 129.215 134.454 129.215C133.344 129.215 132.363 128.964 131.511 128.463C130.659 127.962 130.003 127.242 129.545 126.304C129.087 125.366 128.857 124.277 128.857 123.038C128.857 121.112 129.352 119.608 130.34 118.526C131.328 117.445 132.721 116.904 134.519 116.904C136.237 116.904 137.598 117.459 138.601 118.569C139.603 119.672 140.104 121.162 140.104 123.038ZM131.457 123.038C131.457 125.781 132.47 127.152 134.497 127.152C136.502 127.152 137.505 125.781 137.505 123.038C137.505 120.324 136.495 118.967 134.476 118.967C133.416 118.967 132.646 119.318 132.166 120.02C131.693 120.721 131.457 121.728 131.457 123.038ZM145.54 129H143.016V117.119H145.54V129ZM142.865 113.972C142.865 113.521 142.987 113.173 143.23 112.93C143.481 112.686 143.836 112.564 144.294 112.564C144.738 112.564 145.082 112.686 145.325 112.93C145.576 113.173 145.701 113.521 145.701 113.972C145.701 114.401 145.576 114.742 145.325 114.992C145.082 115.236 144.738 115.357 144.294 115.357C143.836 115.357 143.481 115.236 143.23 114.992C142.987 114.742 142.865 114.401 142.865 113.972ZM159.612 129H157.077V121.695C157.077 120.779 156.891 120.095 156.519 119.644C156.153 119.192 155.57 118.967 154.768 118.967C153.701 118.967 152.92 119.282 152.426 119.912C151.932 120.542 151.685 121.599 151.685 123.081V129H149.16V117.119H151.137L151.491 118.677H151.62C151.978 118.111 152.487 117.674 153.146 117.366C153.804 117.058 154.535 116.904 155.337 116.904C158.187 116.904 159.612 118.354 159.612 121.255V129ZM167.551 127.174C168.167 127.174 168.783 127.077 169.398 126.884V128.785C169.119 128.907 168.757 129.007 168.313 129.086C167.877 129.172 167.422 129.215 166.949 129.215C164.557 129.215 163.361 127.954 163.361 125.434V119.031H161.739V117.914L163.479 116.99L164.339 114.477H165.896V117.119H169.28V119.031H165.896V125.391C165.896 125.999 166.047 126.451 166.348 126.744C166.656 127.031 167.057 127.174 167.551 127.174ZM179.765 125.616C179.765 126.776 179.342 127.668 178.497 128.291C177.652 128.907 176.442 129.215 174.866 129.215C173.284 129.215 172.012 128.975 171.053 128.495V126.314C172.449 126.959 173.749 127.281 174.952 127.281C176.506 127.281 177.283 126.812 177.283 125.874C177.283 125.573 177.197 125.323 177.025 125.122C176.854 124.922 176.571 124.714 176.177 124.499C175.783 124.284 175.235 124.041 174.533 123.769C173.165 123.239 172.238 122.709 171.751 122.179C171.271 121.649 171.031 120.961 171.031 120.116C171.031 119.099 171.439 118.312 172.256 117.753C173.079 117.187 174.197 116.904 175.607 116.904C177.004 116.904 178.325 117.187 179.571 117.753L178.755 119.654C177.473 119.124 176.395 118.859 175.521 118.859C174.189 118.859 173.523 119.239 173.523 119.998C173.523 120.37 173.695 120.686 174.039 120.943C174.39 121.201 175.149 121.556 176.316 122.007C177.298 122.386 178.01 122.734 178.454 123.049C178.898 123.364 179.228 123.729 179.442 124.145C179.657 124.553 179.765 125.043 179.765 125.616Z" fill="white"/>
</g>
<defs>
<filter id="filter0_d" x="-8" y="-6" width="256" height="166" filterUnits="userSpaceOnUse" color-interpolation-filters="sRGB">
<feFlood flood-opacity="0" result="BackgroundImageFix"/>
<feColorMatrix in="SourceAlpha" type="matrix" values="0 0 0 0 0 0 0 0 0 0 0 0 0 0 0 0 0 0 127 0"/>
<feOffset dy="2"/>
<feGaussianBlur stdDeviation="4"/>
<feColorMatrix type="matrix" values="0 0 0 0 0.482781 0 0 0 0 0.482781 0 0 0 0 0.482781 0 0 0 0.193501 0"/>
<feBlend mode="normal" in2="BackgroundImageFix" result="effect1_dropShadow"/>
<feBlend mode="normal" in="SourceGraphic" in2="effect1_dropShadow" result="shape"/>
</filter>
<clipPath id="clip0">
<rect width="240" height="150" fill="white"/>
</clipPath>
</defs>
</svg>
