<svg width="23" height="22" viewBox="0 0 23 22" fill="none" xmlns="http://www.w3.org/2000/svg">
<path opacity="0.5" d="M22.1004 17.1786C22.1004 16.7321 21.9219 16.2857 21.6004 15.9643L16.3504 10.7143L21.6004 5.46428C21.9219 5.14286 22.1004 4.69643 22.1004 4.25C22.1004 3.80357 21.9219 3.35714 21.6004 3.03571L19.1719 0.607141C18.8504 0.285713 18.404 0.107141 17.9576 0.107141C17.5112 0.107141 17.0647 0.285713 16.7433 0.607141L11.4933 5.85714L6.2433 0.607141C5.92188 0.285713 5.47545 0.107141 5.02902 0.107141C4.58259 0.107141 4.13616 0.285713 3.81473 0.607141L1.38616 3.03571C1.06473 3.35714 0.886161 3.80357 0.886161 4.25C0.886161 4.69643 1.06473 5.14286 1.38616 5.46428L6.63616 10.7143L1.38616 15.9643C1.06473 16.2857 0.886161 16.7321 0.886161 17.1786C0.886161 17.625 1.06473 18.0714 1.38616 18.3929L3.81473 20.8214C4.13616 21.1429 4.58259 21.3214 5.02902 21.3214C5.47545 21.3214 5.92188 21.1429 6.2433 20.8214L11.4933 15.5714L16.7433 20.8214C17.0647 21.1429 17.5112 21.3214 17.9576 21.3214C18.404 21.3214 18.8504 21.1429 19.1719 20.8214L21.6004 18.3929C21.9219 18.0714 22.1004 17.625 22.1004 17.1786Z" fill="black"/>
</svg>
