<svg width="30" height="30" viewBox="0 0 30 30" fill="none" xmlns="http://www.w3.org/2000/svg">
<mask id="mask0" mask-type="alpha" maskUnits="userSpaceOnUse" x="2" y="2" width="26" height="26">
<path fill-rule="evenodd" clip-rule="evenodd" d="M2 2.01343H27.9863V27.9961H2V2.01343Z" fill="white"/>
</mask>
<g mask="url(#mask0)">
<path fill-rule="evenodd" clip-rule="evenodd" d="M24.4845 2.01343H5.50174C3.56782 2.01343 2 3.58118 2 5.51516V24.4981C2 26.4321 3.56776 27.9998 5.50174 27.9998H14.864L14.8799 18.7137H12.4674C12.1539 18.7137 11.8994 18.4602 11.8982 18.1467L11.8866 15.1533C11.8854 14.8381 12.1406 14.5819 12.4559 14.5819H14.864V11.6896C14.864 8.33314 16.914 6.50552 19.9082 6.50552H22.3651C22.6795 6.50552 22.9344 6.76037 22.9344 7.07478V9.59875C22.9344 9.91304 22.6797 10.1678 22.3654 10.168L20.8576 10.1687C19.2293 10.1687 18.914 10.9425 18.914 12.078V14.582H22.492C22.8329 14.582 23.0974 14.8797 23.0573 15.2182L22.7025 18.2116C22.6685 18.498 22.4256 18.7138 22.1372 18.7138H18.9299L18.914 28H24.4847C26.4186 28 27.9863 26.4322 27.9863 24.4983V5.51516C27.9863 3.58118 26.4185 2.01343 24.4845 2.01343Z" fill="white"/>
</g>
</svg>
