<svg width="419" height="326" viewBox="0 0 419 326" fill="none" xmlns="http://www.w3.org/2000/svg">
<path opacity="0.1" fill-rule="evenodd" clip-rule="evenodd" d="M3.73547 149.182V149.12L98.2366 98.6286C117.486 41.2864 171.018 0 234.039 0C279.196 0 319.472 21.316 345.771 54.4063C357.038 68.7189 365.804 85.2335 371.136 103.124C373.034 109.21 374.48 115.449 375.474 121.902L441.839 409.653L787.429 604.464L928.835 684.315L933.805 686.516C934.98 687.006 935.944 687.74 936.607 688.718C937.42 689.85 937.872 691.257 937.872 692.847C937.872 696.517 934.86 699.575 931.245 699.575H931.154L930.07 699.392H929.859L741.158 680.92L714.919 678.351L734.41 689.299L943.445 806.278C945.614 807.501 947 809.795 947 812.272C947 816.003 943.988 819 940.312 819C939.891 819 939.439 819 939.047 818.939L937.601 818.45L689.886 735.724L628.823 715.295C567.308 766.887 488.382 797.99 402.285 797.99C227.773 797.99 82.4814 670.216 52.3868 501.859C52.0555 500.605 51.8747 499.321 51.7542 498.006C48.2899 478.127 46.5125 457.729 46.5125 436.78C46.5125 420.449 47.597 404.362 49.7057 388.52C51.4229 375.523 53.8931 362.8 56.8453 350.353C56.9357 349.895 57.1164 349.375 57.1465 348.977C58.8938 341.607 60.7314 334.45 62.7498 327.264C71.6667 296.528 95.2844 248.238 110.829 221.112L3.76556 160.558C3.76556 160.558 3.73547 160.589 3.73547 160.558L2.44012 159.794C0.933899 158.662 0 156.858 0 154.839C0 152.301 1.56647 150.068 3.73547 149.182Z" fill="#9B9B9B"/>
</svg>
