<svg width="250" height="41" viewBox="0 0 250 41" fill="none" xmlns="http://www.w3.org/2000/svg">
<path fill-rule="evenodd" clip-rule="evenodd" d="M9.632 21.3943H12.7371C14.387 21.3943 15.87 21.0918 17.1862 20.4883C18.5024 19.8848 19.1589 18.4939 19.1589 16.3185C19.1589 14.7314 18.7388 13.5472 17.8953 12.7704C17.0533 11.9951 15.7557 11.5725 14.0008 11.5026H9.632C9.77257 11.5026 9.84364 11.4494 9.84364 11.3476V21.6011C9.84364 21.4643 9.77257 21.3943 9.632 21.3943ZM0 37.5537V19.1673V4.76827C0 4.18301 0.264165 3.68135 0.789407 3.26634C1.31619 2.85286 1.94803 2.64612 2.68491 2.64612H14.1058C19.298 2.61115 23.2296 3.51717 25.8959 5.3657C28.5623 7.21118 30.0021 10.0174 30.2122 13.7813C30.2122 13.9197 30.2214 14.2131 30.2384 14.6615C30.2554 15.1115 30.2632 15.6451 30.2632 16.2668C30.2632 17.1303 30.2462 17.752 30.2122 18.1321C30.1071 20.4108 29.449 22.5603 28.2379 24.5806C27.0283 26.5994 25.0803 28.2579 22.3954 29.5531C19.712 30.8467 16.2114 31.4943 11.8952 31.4943V36.9837C11.8952 37.7437 11.5352 38.3822 10.8169 38.9006C10.097 39.419 9.2118 39.6774 8.15978 39.6774H2.89655C2.08706 39.6774 1.4027 39.4707 0.841931 39.0572C0.281159 38.6406 0 38.142 0 37.5537Z" fill="white"/>
<path fill-rule="evenodd" clip-rule="evenodd" d="M84.2105 20.5001C84.2105 16.9561 85.0266 13.7165 86.6586 10.7813C88.2922 7.84614 90.5023 5.535 93.2903 3.85097C96.0798 2.16541 99.1074 1.32263 102.372 1.32263C103.017 1.32263 103.511 1.33946 103.851 1.37464C105.823 1.51382 107.355 1.73867 108.443 2.05222L108.698 2.10423C109.071 2.13941 109.361 2.27707 109.566 2.52026C109.768 2.76499 109.87 3.07702 109.87 3.45787C109.87 3.80661 109.803 4.13699 109.667 4.44902L107.575 9.29614C107.031 10.7201 106.215 11.4314 105.127 11.4314C102.337 11.4314 100.084 12.0233 98.3677 13.2026C96.6503 14.3849 95.5348 16.1409 95.0257 18.4673C94.855 19.2672 94.7712 19.9785 94.7712 20.6025C94.7712 22.4456 95.2713 24.096 96.276 25.5552C97.2792 27.0144 98.8005 28.004 100.841 28.5256C101.928 28.7336 102.899 28.8376 103.749 28.8376C105.892 28.8376 107.6 28.3084 108.876 27.2484C110.152 26.1884 110.975 24.8424 111.35 23.2089H108.493C107.949 23.2089 107.507 23.0269 107.168 22.6628C106.826 22.2973 106.657 21.8384 106.657 21.2816V14.4538C106.657 13.9337 106.835 13.4825 107.193 13.1001C107.549 12.7193 107.984 12.5265 108.493 12.5265H120.38C120.958 12.5265 121.434 12.7086 121.808 13.0741C122.183 13.4381 122.368 13.9001 122.368 14.4538L122.268 18.2057C122.234 18.6233 122.19 19.3621 122.141 20.422C122.088 21.4835 122.012 22.4625 121.91 23.3664C121.605 26.424 120.567 29.194 118.799 31.678C117.029 34.1619 114.784 36.1167 112.065 37.5407C109.343 38.9662 106.486 39.6775 103.493 39.6775C100.16 39.6775 97.0142 38.8179 94.0554 37.0971C91.0982 35.3779 88.716 33.0408 86.9147 30.0872C85.1119 27.1367 84.2105 23.9385 84.2105 20.5001Z" fill="white"/>
<path fill-rule="evenodd" clip-rule="evenodd" d="M141.614 11.6238V15.7787H156.293C156.85 15.7787 157.345 15.9926 157.777 16.4203C158.21 16.848 158.428 17.3871 158.428 18.0377V22.4999C158.428 23.0827 158.21 23.6038 157.777 24.0646C157.345 24.527 156.85 24.7589 156.293 24.7589H141.614V29.3235H157.022C157.614 29.3235 158.124 29.5388 158.56 29.965C158.992 30.3927 159.211 30.9499 159.211 31.6337V36.0447C159.211 36.6621 158.992 37.1997 158.56 37.6621C158.124 38.1244 157.614 38.3548 157.022 38.3548H132.451C131.86 38.3548 131.347 38.1244 130.914 37.6621C130.48 37.1997 130.263 36.6621 130.263 36.0447V35.8926V31.6337V9.3648V4.90109C130.263 4.25202 130.48 3.71438 130.914 3.28518C131.347 2.85748 131.86 2.64514 132.451 2.64514H157.022C157.614 2.64514 158.124 2.85748 158.56 3.28518C158.992 3.71438 159.211 4.25202 159.211 4.90109V9.3648C159.211 9.94761 158.983 10.4687 158.532 10.931C158.081 11.3934 157.577 11.6238 157.022 11.6238H141.614Z" fill="white"/>
<path fill-rule="evenodd" clip-rule="evenodd" d="M192.964 21.3504C192.964 19.8495 192.58 18.4684 191.819 17.212C191.054 15.954 190.039 14.9498 188.771 14.1993C187.506 13.4488 186.144 13.072 184.685 13.072C183.157 13.072 181.762 13.4488 180.495 14.1993C179.228 14.9498 178.231 15.954 177.502 17.212C176.773 18.4684 176.408 19.8495 176.408 21.3504C176.408 22.8529 176.773 24.2417 177.502 25.5166C178.231 26.7915 179.228 27.8049 180.495 28.5554C181.762 29.3059 183.157 29.6827 184.685 29.6827C186.144 29.6827 187.506 29.3059 188.771 28.5554C190.039 27.8049 191.054 26.7915 191.819 25.5166C192.58 24.2417 192.964 22.8529 192.964 21.3504ZM165.789 21.8226C165.789 18.3639 166.647 15.1681 168.364 12.2339C170.082 9.29957 172.4 6.96813 175.314 5.23955C178.231 3.50943 181.407 2.64514 184.842 2.64514C188.279 2.64514 191.462 3.50943 194.396 5.23955C197.326 6.96813 199.652 9.29957 201.371 12.2339C203.089 15.1681 203.947 18.3639 203.947 21.8226C203.947 25.2813 203.089 28.477 201.371 31.4113C199.652 34.3456 197.326 36.677 194.396 38.4056C191.462 40.1342 188.279 41 184.842 41C181.407 41 178.231 40.1342 175.314 38.4056C172.4 36.677 170.082 34.3456 168.364 31.4113C166.647 28.477 165.789 25.2813 165.789 21.8226Z" fill="white"/>
<path fill-rule="evenodd" clip-rule="evenodd" d="M239.509 37.9984C239.304 37.8951 237.827 36.3992 235.076 33.5078C232.325 30.6193 228.304 26.3503 223.006 20.7036C222.498 20.193 222.173 19.9385 222.039 19.9385C221.903 19.9385 221.818 20.0148 221.783 20.1676C221.749 20.3203 221.732 20.5689 221.732 20.9073V36.1626C221.732 36.7077 221.538 37.1824 221.146 37.5912C220.755 37.9984 220.273 38.2006 219.696 38.2006H212.921C212.275 38.2006 211.715 37.9385 211.241 37.4115C210.763 36.8844 210.526 36.263 210.526 35.5487V5.50066C210.526 4.75346 210.782 4.09012 211.292 3.51213C211.8 2.93414 212.395 2.64514 213.072 2.64514H219.391C219.967 2.64514 220.417 2.72001 220.74 2.87274C221.061 3.02698 221.478 3.37587 221.986 3.91942C223.549 5.55307 226.095 8.21243 229.627 11.9035C233.158 15.5945 235.927 18.459 237.928 20.5C238.2 20.6707 238.387 20.7545 238.489 20.7545C238.694 20.7545 238.795 20.4835 238.795 19.9385V4.73549C238.795 4.19194 238.997 3.70679 239.407 3.28153C239.814 2.85627 240.272 2.64514 240.782 2.64514H247.249C247.997 2.64514 248.643 2.91617 249.185 3.45972C249.728 4.00327 250 4.63367 250 5.34792V35.7015C250 36.3828 249.737 36.9952 249.211 37.5372C248.686 38.0838 248.08 38.3548 247.403 38.3548H241.648C241.002 38.3548 240.551 38.3294 240.296 38.2785C240.042 38.2275 239.781 38.1347 239.509 37.9984Z" fill="white"/>
<path fill-rule="evenodd" clip-rule="evenodd" d="M77.4447 7.46819V7.46512L72.7178 4.93745C71.755 2.06684 69.0774 0 65.9251 0C63.6664 0 61.6517 1.0671 60.3363 2.72364C59.7727 3.44014 59.3342 4.26688 59.0675 5.16251C58.9726 5.46718 58.9003 5.7795 58.8506 6.10254L55.531 20.5077L38.2448 30.2601L31.1718 34.2575L30.9231 34.3677C30.8644 34.3922 30.8162 34.429 30.783 34.478C30.7423 34.5346 30.7197 34.605 30.7197 34.6847C30.7197 34.8684 30.8704 35.0215 31.0512 35.0215H31.0557L31.11 35.0123H31.1205L40.5593 34.0876L41.8717 33.959L40.8968 34.5071L30.441 40.3631C30.3325 40.4243 30.2632 40.5392 30.2632 40.6632C30.2632 40.85 30.4138 41 30.5977 41C30.6188 41 30.6414 41 30.661 40.9969L30.7333 40.9724L43.1239 36.8311L46.1782 35.8084C49.2551 38.3912 53.203 39.9482 57.5095 39.9482C66.2385 39.9482 73.5059 33.5517 75.0112 25.1236C75.0278 25.0608 75.0368 24.9965 75.0429 24.9307C75.2161 23.9355 75.305 22.9144 75.305 21.8656C75.305 21.0481 75.2508 20.2428 75.1453 19.4497C75.0594 18.7991 74.9359 18.1622 74.7882 17.5391C74.7837 17.5161 74.7746 17.4901 74.7731 17.4702C74.6857 17.1012 74.5938 16.7429 74.4929 16.3832C74.0468 14.8445 72.8655 12.4271 72.088 11.0691L77.4432 8.03771C77.4432 8.03771 77.4447 8.03925 77.4447 8.03771L77.5095 7.99944C77.5849 7.94279 77.6316 7.85246 77.6316 7.75142C77.6316 7.62435 77.5532 7.51258 77.4447 7.46819Z" fill="white"/>
</svg>
