<svg width="240" height="150" viewBox="0 0 240 150" fill="none" xmlns="http://www.w3.org/2000/svg">
<g clip-path="url(#clip0)">
<g filter="url(#filter0_d)">
<rect width="240" height="150" rx="9.6" fill="#F28964"/>
</g>
<path d="M78.6406 120.6H80.4238C81.6198 120.6 82.4863 120.378 83.0234 119.934C83.5605 119.49 83.8291 118.831 83.8291 117.957C83.8291 117.069 83.5391 116.432 82.959 116.045C82.3789 115.658 81.5052 115.465 80.3379 115.465H78.6406V120.6ZM78.6406 122.727V129H76.0732V113.295H80.5098C82.5365 113.295 84.0368 113.674 85.0107 114.434C85.9847 115.193 86.4717 116.339 86.4717 117.871C86.4717 119.826 85.4548 121.219 83.4209 122.05L87.8574 129H84.9355L81.1758 122.727H78.6406ZM95.0654 129.215C93.2178 129.215 91.7712 128.678 90.7256 127.604C89.6872 126.522 89.168 125.036 89.168 123.146C89.168 121.205 89.6514 119.679 90.6182 118.569C91.585 117.459 92.9134 116.904 94.6035 116.904C96.1719 116.904 97.4108 117.381 98.3203 118.333C99.2298 119.285 99.6846 120.596 99.6846 122.265V123.629H91.7676C91.8034 124.782 92.1149 125.67 92.7021 126.293C93.2894 126.909 94.1165 127.217 95.1836 127.217C95.8854 127.217 96.5371 127.152 97.1387 127.023C97.7474 126.887 98.3991 126.665 99.0938 126.357V128.409C98.4779 128.703 97.8548 128.91 97.2246 129.032C96.5944 129.154 95.8747 129.215 95.0654 129.215ZM94.6035 118.816C93.8014 118.816 93.1569 119.071 92.6699 119.579C92.1901 120.088 91.9036 120.829 91.8105 121.803H97.2031C97.1888 120.822 96.9525 120.08 96.4941 119.579C96.0358 119.071 95.4056 118.816 94.6035 118.816ZM110.534 125.616C110.534 126.776 110.112 127.668 109.267 128.291C108.422 128.907 107.211 129.215 105.636 129.215C104.053 129.215 102.782 128.975 101.822 128.495V126.314C103.219 126.959 104.519 127.281 105.722 127.281C107.276 127.281 108.053 126.812 108.053 125.874C108.053 125.573 107.967 125.323 107.795 125.122C107.623 124.922 107.34 124.714 106.946 124.499C106.552 124.284 106.005 124.041 105.303 123.769C103.935 123.239 103.007 122.709 102.521 122.179C102.041 121.649 101.801 120.961 101.801 120.116C101.801 119.099 102.209 118.312 103.025 117.753C103.849 117.187 104.966 116.904 106.377 116.904C107.773 116.904 109.095 117.187 110.341 117.753L109.524 119.654C108.243 119.124 107.165 118.859 106.291 118.859C104.959 118.859 104.293 119.239 104.293 119.998C104.293 120.37 104.465 120.686 104.809 120.943C105.16 121.201 105.919 121.556 107.086 122.007C108.067 122.386 108.78 122.734 109.224 123.049C109.668 123.364 109.997 123.729 110.212 124.145C110.427 124.553 110.534 125.043 110.534 125.616ZM119.3 129.215C117.796 129.215 116.629 128.674 115.798 127.593H115.647C115.748 128.595 115.798 129.204 115.798 129.419V134.285H113.273V117.119H115.314C115.372 117.341 115.49 117.871 115.669 118.709H115.798C116.586 117.506 117.767 116.904 119.343 116.904C120.825 116.904 121.978 117.441 122.802 118.516C123.632 119.59 124.048 121.097 124.048 123.038C124.048 124.979 123.625 126.493 122.78 127.582C121.942 128.671 120.782 129.215 119.3 129.215ZM118.688 118.967C117.685 118.967 116.951 119.26 116.485 119.848C116.027 120.435 115.798 121.373 115.798 122.662V123.038C115.798 124.485 116.027 125.534 116.485 126.186C116.944 126.83 117.692 127.152 118.73 127.152C119.604 127.152 120.277 126.794 120.75 126.078C121.223 125.362 121.459 124.341 121.459 123.017C121.459 121.685 121.223 120.678 120.75 119.998C120.285 119.311 119.597 118.967 118.688 118.967ZM137.519 123.038C137.519 124.979 137.021 126.493 136.025 127.582C135.03 128.671 133.644 129.215 131.868 129.215C130.758 129.215 129.777 128.964 128.925 128.463C128.073 127.962 127.417 127.242 126.959 126.304C126.501 125.366 126.271 124.277 126.271 123.038C126.271 121.112 126.766 119.608 127.754 118.526C128.742 117.445 130.135 116.904 131.933 116.904C133.651 116.904 135.012 117.459 136.015 118.569C137.017 119.672 137.519 121.162 137.519 123.038ZM128.871 123.038C128.871 125.781 129.884 127.152 131.911 127.152C133.916 127.152 134.919 125.781 134.919 123.038C134.919 120.324 133.909 118.967 131.89 118.967C130.83 118.967 130.06 119.318 129.58 120.02C129.107 120.721 128.871 121.728 128.871 123.038ZM150.882 129H148.347V121.695C148.347 120.779 148.16 120.095 147.788 119.644C147.423 119.192 146.839 118.967 146.037 118.967C144.97 118.967 144.189 119.282 143.695 119.912C143.201 120.542 142.954 121.599 142.954 123.081V129H140.43V117.119H142.406L142.761 118.677H142.89C143.248 118.111 143.756 117.674 144.415 117.366C145.074 117.058 145.804 116.904 146.606 116.904C149.457 116.904 150.882 118.354 150.882 121.255V129ZM158.401 129.215C156.919 129.215 155.762 128.678 154.932 127.604C154.101 126.529 153.686 125.022 153.686 123.081C153.686 121.133 154.104 119.618 154.942 118.537C155.787 117.449 156.955 116.904 158.444 116.904C160.006 116.904 161.194 117.481 162.011 118.634H162.14C162.018 117.782 161.957 117.108 161.957 116.614V112.285H164.492V129H162.516L162.075 127.442H161.957C161.148 128.624 159.963 129.215 158.401 129.215ZM159.078 127.174C160.117 127.174 160.872 126.884 161.345 126.304C161.817 125.716 162.061 124.768 162.075 123.457V123.103C162.075 121.606 161.832 120.542 161.345 119.912C160.858 119.282 160.095 118.967 159.057 118.967C158.169 118.967 157.485 119.328 157.005 120.052C156.525 120.768 156.285 121.792 156.285 123.124C156.285 124.442 156.518 125.448 156.983 126.143C157.449 126.83 158.147 127.174 159.078 127.174Z" fill="white"/>
<path fill-rule="evenodd" clip-rule="evenodd" d="M97.509 29.6858H116.854V27.2735H97.509V26.0679C97.509 24.073 99.1362 22.45 101.136 22.45H126.526C127.86 22.45 128.944 23.5312 128.944 24.8622H131.363C131.363 22.201 129.194 20.0377 126.526 20.0377H101.136C97.8026 20.0377 95.0907 22.7428 95.0907 26.0679V32.098H97.509V29.6858Z" fill="white"/>
<path fill-rule="evenodd" clip-rule="evenodd" d="M97.509 77.927V74.3091H102.345V71.8969H95.0907V77.927C95.0907 81.2521 97.8026 83.9572 101.136 83.9572H104.763V81.5449H101.136C99.1362 81.5449 97.509 79.9219 97.509 77.927Z" fill="white"/>
<path fill-rule="evenodd" clip-rule="evenodd" d="M105.314 51.1345C106.501 50.1171 107.181 48.6412 107.181 47.083C107.181 44.1399 104.782 41.7461 101.831 41.7461H101.642C100.211 41.7461 98.869 42.3012 97.858 43.3096L97.509 43.6593L97.1584 43.3096C96.149 42.3012 94.8051 41.7461 93.3765 41.7461H93.1868C90.2365 41.7461 87.8367 44.1399 87.8367 47.083C87.8367 48.6412 88.517 50.1186 89.7043 51.135L97.509 57.8072L105.314 51.1345ZM90.2541 47.083C90.2541 45.4708 91.5699 44.1583 93.1868 44.1583H93.3765C94.1593 44.1583 94.8959 44.4623 95.4487 45.0144L97.509 47.0696L99.5694 45.0144C100.121 44.4623 100.858 44.1583 101.642 44.1583H101.831C103.448 44.1583 104.763 45.4708 104.763 47.083C104.763 47.9368 104.39 48.7473 103.739 49.303L97.509 54.6301L91.2784 49.3045C90.6283 48.7473 90.2541 47.9368 90.2541 47.083Z" fill="white"/>
<path fill-rule="evenodd" clip-rule="evenodd" d="M112.018 48.9828C112.018 41.0019 105.509 34.5103 97.509 34.5103C89.5088 34.5103 83 41.0019 83 48.9828C83 56.9628 89.5088 63.4544 97.509 63.4544C105.509 63.4544 112.018 56.9628 112.018 48.9828ZM85.4183 48.9828C85.4183 42.3321 90.8423 36.9225 97.509 36.9225C104.176 36.9225 109.6 42.3321 109.6 48.9828C109.6 55.6327 104.176 61.0431 97.509 61.0431C90.8423 61.0431 85.4183 55.6327 85.4183 48.9828Z" fill="white"/>
<path fill-rule="evenodd" clip-rule="evenodd" d="M119.272 27.2734V41.746H121.69V29.6857H155.544V59.8364H149.499V62.2487H157.962V27.2734H119.272Z" fill="white"/>
<path fill-rule="evenodd" clip-rule="evenodd" d="M148.29 41.7461C148.29 36.4264 143.95 32.098 138.617 32.098C133.284 32.098 128.944 36.4264 128.944 41.7461C128.944 44.678 130.289 47.4457 132.571 49.2721V50.1885H130.154V52.6007H142.245V55.013H141.035V57.4243H144.662V52.6007H147.08V50.1885H144.662V49.2721C146.945 47.4457 148.29 44.678 148.29 41.7461ZM138.617 42.9527C137.951 42.9527 137.408 42.4122 137.408 41.7461C137.408 41.0807 137.951 40.5404 138.617 40.5404C139.283 40.5404 139.826 41.0807 139.826 41.7461C139.826 42.4122 139.283 42.9527 138.617 42.9527ZM142.76 47.6799L142.245 48.0406V50.1885H139.826V45.1426C141.23 44.6434 142.245 43.3162 142.245 41.7461C142.245 39.7512 140.617 38.1282 138.617 38.1282C136.617 38.1282 134.99 39.7512 134.99 41.7461C134.99 43.3162 136.004 44.6434 137.408 45.1426V50.1885H134.99V48.0406L134.474 47.6799C132.526 46.3231 131.363 44.1054 131.363 41.7461C131.363 37.7556 134.616 34.5103 138.617 34.5103C142.618 34.5103 145.872 37.7556 145.872 41.7461C145.872 44.1054 144.709 46.3231 142.76 47.6799Z" fill="white"/>
<path fill-rule="evenodd" clip-rule="evenodd" d="M142.245 59.8365C140.794 59.8365 139.505 60.4902 138.617 61.5031C137.73 60.4902 136.441 59.8365 134.99 59.8365C133.539 59.8365 132.25 60.4902 131.363 61.5031C130.475 60.4902 129.186 59.8365 127.736 59.8365C126.85 59.8365 126.032 60.0928 125.317 60.5072V48.9828C125.317 46.3216 123.149 44.1583 120.481 44.1583C117.814 44.1583 115.645 46.3216 115.645 48.9828V73.5966C115.645 73.7797 115.572 73.9535 115.441 74.0809C115.309 74.2105 115.104 74.2576 114.952 74.2767C114.649 74.2716 114.389 74.0728 114.306 73.782L112.651 67.9352C112.105 66.0065 110.32 64.661 108.312 64.661H108.064C105.577 64.661 103.554 66.6787 103.554 69.1578C103.554 69.4559 103.583 69.7541 103.642 70.0397L105.201 77.8137C105.767 80.6411 107.31 83.2188 109.544 85.0776L113.227 88.1411V94.8118H142.245V93.3985C142.245 91.5206 142.977 89.7547 144.308 88.4283C146.097 86.6454 147.08 84.276 147.08 81.7525V64.661C147.08 62 144.912 59.8365 142.245 59.8365ZM144.662 81.7525C144.662 83.6304 143.93 85.3963 142.599 86.7227C141.048 88.2677 140.103 90.2552 139.878 92.3995H115.645V87.0097L111.092 83.2254C109.28 81.7186 108.03 79.6303 107.571 77.3411L106.011 69.5649C105.986 69.4309 105.973 69.2956 105.973 69.1578C105.973 68.0074 106.91 67.0733 108.062 67.0733H108.31C109.242 67.0733 110.07 67.6974 110.324 68.591L111.979 74.4393C112.355 75.7622 113.533 76.6669 114.911 76.6897C115.766 76.7021 116.539 76.3893 117.136 75.8034C117.734 75.2161 118.063 74.4335 118.063 73.5966V48.9828C118.063 47.6519 119.147 46.5706 120.481 46.5706C121.815 46.5706 122.899 47.6519 122.899 48.9828V69.4846H125.317V64.661C125.317 63.3308 126.402 62.2488 127.736 62.2488C129.069 62.2488 130.154 63.3308 130.154 64.661V69.4846H132.571V64.661C132.571 63.3308 133.656 62.2488 134.99 62.2488C136.323 62.2488 137.408 63.3308 137.408 64.661V69.4846H139.826V64.661C139.826 63.3308 140.91 62.2488 142.245 62.2488C143.578 62.2488 144.662 63.3308 144.662 64.661V81.7525Z" fill="white"/>
<path fill-rule="evenodd" clip-rule="evenodd" d="M95.0907 69.4846H97.509V65.8667H95.0907V69.4846Z" fill="white"/>
</g>
<defs>
<filter id="filter0_d" x="-8" y="-6" width="256" height="166" filterUnits="userSpaceOnUse" color-interpolation-filters="sRGB">
<feFlood flood-opacity="0" result="BackgroundImageFix"/>
<feColorMatrix in="SourceAlpha" type="matrix" values="0 0 0 0 0 0 0 0 0 0 0 0 0 0 0 0 0 0 127 0"/>
<feOffset dy="2"/>
<feGaussianBlur stdDeviation="4"/>
<feColorMatrix type="matrix" values="0 0 0 0 0.482781 0 0 0 0 0.482781 0 0 0 0 0.482781 0 0 0 0.193501 0"/>
<feBlend mode="normal" in2="BackgroundImageFix" result="effect1_dropShadow"/>
<feBlend mode="normal" in="SourceGraphic" in2="effect1_dropShadow" result="shape"/>
</filter>
<clipPath id="clip0">
<rect width="240" height="150" fill="white"/>
</clipPath>
</defs>
</svg>
