<svg width="240" height="150" viewBox="0 0 240 150" fill="none" xmlns="http://www.w3.org/2000/svg">
<g clip-path="url(#clip0)">
<g filter="url(#filter0_d)">
<rect width="240" height="150" rx="9.6" fill="#4A90E2"/>
</g>
<path d="M107.021 113.295H109.686L104.186 129H101.479L96 113.295H98.6426L101.919 123.06C102.091 123.525 102.273 124.127 102.467 124.864C102.66 125.595 102.785 126.139 102.843 126.497C102.936 125.953 103.079 125.323 103.272 124.606C103.466 123.89 103.623 123.36 103.745 123.017L107.021 113.295ZM122.028 123.038C122.028 124.979 121.531 126.493 120.535 127.582C119.54 128.671 118.154 129.215 116.378 129.215C115.268 129.215 114.287 128.964 113.435 128.463C112.582 127.962 111.927 127.242 111.469 126.304C111.01 125.366 110.781 124.277 110.781 123.038C110.781 121.112 111.275 119.608 112.264 118.526C113.252 117.445 114.645 116.904 116.442 116.904C118.161 116.904 119.522 117.459 120.524 118.569C121.527 119.672 122.028 121.162 122.028 123.038ZM113.381 123.038C113.381 125.781 114.394 127.152 116.421 127.152C118.426 127.152 119.429 125.781 119.429 123.038C119.429 120.324 118.419 118.967 116.399 118.967C115.34 118.967 114.57 119.318 114.09 120.02C113.617 120.721 113.381 121.728 113.381 123.038ZM129.365 127.174C129.981 127.174 130.597 127.077 131.213 126.884V128.785C130.934 128.907 130.572 129.007 130.128 129.086C129.691 129.172 129.236 129.215 128.764 129.215C126.372 129.215 125.176 127.954 125.176 125.434V119.031H123.554V117.914L125.294 116.99L126.153 114.477H127.711V117.119H131.095V119.031H127.711V125.391C127.711 125.999 127.861 126.451 128.162 126.744C128.47 127.031 128.871 127.174 129.365 127.174ZM138.786 129.215C136.938 129.215 135.492 128.678 134.446 127.604C133.408 126.522 132.889 125.036 132.889 123.146C132.889 121.205 133.372 119.679 134.339 118.569C135.306 117.459 136.634 116.904 138.324 116.904C139.893 116.904 141.132 117.381 142.041 118.333C142.951 119.285 143.405 120.596 143.405 122.265V123.629H135.488C135.524 124.782 135.836 125.67 136.423 126.293C137.01 126.909 137.837 127.217 138.904 127.217C139.606 127.217 140.258 127.152 140.859 127.023C141.468 126.887 142.12 126.665 142.814 126.357V128.409C142.199 128.703 141.576 128.91 140.945 129.032C140.315 129.154 139.595 129.215 138.786 129.215ZM138.324 118.816C137.522 118.816 136.878 119.071 136.391 119.579C135.911 120.088 135.624 120.829 135.531 121.803H140.924C140.91 120.822 140.673 120.08 140.215 119.579C139.757 119.071 139.126 118.816 138.324 118.816Z" fill="white"/>
<path fill-rule="evenodd" clip-rule="evenodd" d="M105.39 32.1895C104.582 32.1895 103.927 32.8438 103.927 33.6493C103.927 34.4555 104.582 35.1092 105.39 35.1092C106.198 35.1092 106.853 34.4555 106.853 33.6493C106.853 32.8438 106.198 32.1895 105.39 32.1895Z" fill="white"/>
<path fill-rule="evenodd" clip-rule="evenodd" d="M105.39 73.9414C104.582 73.9414 103.927 74.5958 103.927 75.4013C103.927 76.2075 104.582 76.8611 105.39 76.8611C106.198 76.8611 106.853 76.2075 106.853 75.4013C106.853 74.5958 106.198 73.9414 105.39 73.9414Z" fill="white"/>
<path fill-rule="evenodd" clip-rule="evenodd" d="M93.6825 32.1895C92.8751 32.1895 92.2191 32.8438 92.2191 33.6493C92.2191 34.4555 92.8751 35.1092 93.6825 35.1092C94.4907 35.1092 95.1459 34.4555 95.1459 33.6493C95.1459 32.8438 94.4907 32.1895 93.6825 32.1895Z" fill="white"/>
<mask id="mask0" mask-type="alpha" maskUnits="userSpaceOnUse" x="83" y="20" width="34" height="75">
<path fill-rule="evenodd" clip-rule="evenodd" d="M83.011 20.073H116.073V94.8179H83.011V20.073Z" fill="white"/>
</mask>
<g mask="url(#mask0)">
<path fill-rule="evenodd" clip-rule="evenodd" d="M93.6825 73.9414C92.8751 73.9414 92.2191 74.5958 92.2191 75.4013C92.2191 76.2075 92.8751 76.8611 93.6825 76.8611C94.4907 76.8611 95.1459 76.2075 95.1459 75.4013C95.1459 74.5958 94.4907 73.9414 93.6825 73.9414Z" fill="white"/>
<path fill-rule="evenodd" clip-rule="evenodd" d="M111.139 24.9951C108.003 21.8672 103.774 20.073 99.5362 20.073C95.2989 20.073 91.0702 21.8672 87.9341 24.9951C84.7985 28.1235 83 32.342 83 36.569C83 40.7967 84.7985 45.0153 87.9341 48.1431C91.0702 51.2717 95.2989 53.0659 99.5362 53.0659C103.774 53.0659 108.003 51.2717 111.139 48.1431C114.275 45.0153 116.073 40.7967 116.073 36.569C116.073 32.342 114.275 28.1235 111.139 24.9951ZM99.5362 50.1462C92.2865 50.1462 85.9268 43.802 85.9268 36.569C85.9268 29.3369 92.2865 22.9927 99.5362 22.9927C106.787 22.9927 113.147 29.3369 113.147 36.569C113.147 43.802 106.787 50.1462 99.5362 50.1462Z" fill="white"/>
<path fill-rule="evenodd" clip-rule="evenodd" d="M106.78 41.7312C106.21 41.1609 105.283 41.1609 104.711 41.7312C101.858 44.576 97.2154 44.576 94.3614 41.7312C93.7905 41.1609 92.8638 41.1609 92.2921 41.7312C91.7212 42.3014 91.7212 43.226 92.2928 43.7956C94.29 45.7872 96.9132 46.783 99.5362 46.783C102.16 46.783 104.783 45.7872 106.78 43.7956C107.352 43.226 107.352 42.3014 106.78 41.7312Z" fill="white"/>
<path fill-rule="evenodd" clip-rule="evenodd" d="M111.139 66.7468C108.003 63.6191 103.774 61.825 99.5362 61.825C95.2989 61.825 91.0702 63.6191 87.9341 66.7468C84.7985 69.8755 83 74.0939 83 78.3209C83 82.5487 84.7985 86.7671 87.9341 89.895C91.0702 93.0237 95.2989 94.8178 99.5362 94.8178C103.774 94.8178 108.003 93.0237 111.139 89.895C114.275 86.7671 116.073 82.5487 116.073 78.3209C116.073 74.0939 114.275 69.8755 111.139 66.7468ZM99.5362 91.8981C92.2865 91.8981 85.9268 85.5532 85.9268 78.3209C85.9268 71.0886 92.2865 64.7447 99.5362 64.7447C106.787 64.7447 113.147 71.0886 113.147 78.3209C113.147 85.5532 106.787 91.8981 99.5362 91.8981Z" fill="white"/>
</g>
<path fill-rule="evenodd" clip-rule="evenodd" d="M106.78 82.6856C102.786 78.7031 96.2872 78.7031 92.2928 82.6856C91.7212 83.2558 91.7212 84.1798 92.2921 84.75C92.8638 85.321 93.7905 85.321 94.3621 84.7507C97.2154 81.9058 101.858 81.9058 104.711 84.7507C104.997 85.0358 105.371 85.1783 105.746 85.1783C106.12 85.1783 106.495 85.0358 106.78 84.75C107.352 84.1798 107.352 83.2558 106.78 82.6856Z" fill="white"/>
<path fill-rule="evenodd" clip-rule="evenodd" d="M153.537 20.073H129.683C127.262 20.073 125.292 22.0376 125.292 24.4526V48.6863C125.292 51.1013 127.262 53.0659 129.683 53.0659H153.537C155.957 53.0659 157.927 51.1013 157.927 48.6863V24.4526C157.927 22.0376 155.957 20.073 153.537 20.073ZM155 48.6863C155 49.4911 154.344 50.1462 153.537 50.1462H129.683C128.876 50.1462 128.219 49.4911 128.219 48.6863V24.4526C128.219 23.6478 128.876 22.9927 129.683 22.9927H153.537C154.344 22.9927 155 23.6478 155 24.4526V48.6863Z" fill="white"/>
<path fill-rule="evenodd" clip-rule="evenodd" d="M153.537 61.825H129.683C127.262 61.825 125.292 63.7894 125.292 66.2045V90.4383C125.292 92.8525 127.262 94.8178 129.683 94.8178H153.537C155.957 94.8178 157.927 92.8525 157.927 90.4383V66.2045C157.927 63.7894 155.957 61.825 153.537 61.825ZM155 90.4383C155 91.243 154.344 91.8981 153.537 91.8981H129.683C128.876 91.8981 128.219 91.243 128.219 90.4383V66.2045C128.219 65.3998 128.876 64.7447 129.683 64.7447H153.537C154.344 64.7447 155 65.3998 155 66.2045V90.4383Z" fill="white"/>
<path fill-rule="evenodd" clip-rule="evenodd" d="M149.742 33.055C149.17 32.4855 148.244 32.4855 147.673 33.0557L139.927 40.7818L135.108 35.9747C134.536 35.4052 133.61 35.4052 133.038 35.9747C132.467 36.5449 132.467 37.4694 133.038 38.0397L138.892 43.8791C139.178 44.1643 139.552 44.3068 139.927 44.3068C140.301 44.3068 140.676 44.1643 140.961 43.8791L149.742 35.1199C150.313 34.5497 150.313 33.6252 149.742 33.055Z" fill="white"/>
</g>
<defs>
<filter id="filter0_d" x="-8" y="-6" width="256" height="166" filterUnits="userSpaceOnUse" color-interpolation-filters="sRGB">
<feFlood flood-opacity="0" result="BackgroundImageFix"/>
<feColorMatrix in="SourceAlpha" type="matrix" values="0 0 0 0 0 0 0 0 0 0 0 0 0 0 0 0 0 0 127 0"/>
<feOffset dy="2"/>
<feGaussianBlur stdDeviation="4"/>
<feColorMatrix type="matrix" values="0 0 0 0 0.482781 0 0 0 0 0.482781 0 0 0 0 0.482781 0 0 0 0.193501 0"/>
<feBlend mode="normal" in2="BackgroundImageFix" result="effect1_dropShadow"/>
<feBlend mode="normal" in="SourceGraphic" in2="effect1_dropShadow" result="shape"/>
</filter>
<clipPath id="clip0">
<rect width="240" height="150" fill="white"/>
</clipPath>
</defs>
</svg>
